Coordinates
version=1
nRows=16
nColumns=42
inDegrees=yes

Units are S.I. units (second, meters, Newtons, ...)
If the header above contains a line with 'inDegrees', this indicates whether rotational values are in degrees (yes) or radians (no).

endheader
time	pelvis_tilt	pelvis_list	pelvis_rotation	pelvis_tx	pelvis_ty	pelvis_tz	hip_flexion_r	hip_adduction_r	hip_rotation_r	knee_angle_r	knee_adduction_r	knee_angle_r_beta	ankle_angle_r	subtalar_angle_r	mtp_angle_r	hip_flexion_l	hip_adduction_l	hip_rotation_l	knee_angle_l	knee_adduction_l	knee_angle_l_beta	ankle_angle_l	subtalar_angle_l	mtp_angle_l	lumbar_extension	lumbar_bending	lumbar_rotation	arm_flex_r	arm_add_r	arm_rot_r	elbow_flex_r	pro_sup_r	wrist_flex_r	wrist_dev_r	arm_flex_l	arm_add_l	arm_rot_l	elbow_flex_l	pro_sup_l	wrist_flex_l	wrist_dev_l
      1.80000000	     -1.62483945	     -6.79847135	      2.10434230	      0.73837069	      0.85351969	     -0.36709577	     13.31499222	      7.93478765	     -0.12729128	     13.85664705	      5.91793461	      0.24184411	      1.35639072	     -9.62144455	     -7.50510307	      3.71428233	    -13.80888981	      0.55582449	     61.04583130	     12.00501828	      1.06545075	     -3.98644983	    -16.86674811	     -7.50510307	     -5.55040351	      9.05289554	     -3.20191114	     -6.60646336	    -12.05160645	     -5.25251080	     23.55459733	     90.00000001	      0.00000000	      0.00000000	     -7.98348811	     -9.96178568	    -11.78790133	     42.83460888	     90.00000001	      0.00000000	      0.00000000
      1.81000000	     -1.50158669	     -6.57029295	      2.01376496	      0.75026418	      0.85534004	     -0.36673051	     11.89294737	      7.76647511	      0.02656791	     13.12783807	      5.96349640	      0.22912400	      2.05015054	     -8.98722185	     -7.50498727	      5.61337337	    -13.53025421	      0.54616368	     63.28184201	     11.38132475	      1.10447650	     -2.83729586	    -17.10695915	     -7.50498727	     -5.73759740	      8.68904036	     -2.62969529	     -6.18951239	    -12.08208915	     -4.99585868	     23.55159880	     90.00000001	      0.00000000	      0.00000000	     -7.85659103	     -9.85392136	    -11.86793823	     41.63493085	     90.00000001	      0.00000000	      0.00000000
      1.82000000	     -1.51164540	     -6.34903823	      1.92147521	      0.76178674	      0.85690934	     -0.36634013	     10.62265463	      7.60786660	      0.11864123	     12.33948727	      5.96326494	      0.21536468	      2.66957634	     -8.29581195	     -7.50487616	      7.72769036	    -13.23791142	      0.51437264	     65.24104472	     10.75518941	      1.13867104	     -1.49482199	    -17.18509036	     -7.50487616	     -5.81851640	      8.31629269	     -2.10296001	     -5.69786710	    -12.12089130	     -4.66519680	     23.63133439	     90.00000001	      0.00000000	      0.00000000	     -7.68849006	     -9.72844419	    -12.06632854	     40.38156354	     90.00000001	      0.00000000	      0.00000000
      1.83000000	     -1.72905663	     -6.19883366	      1.81935075	      0.77298570	      0.85807224	     -0.36587036	      9.60900415	      7.55136248	      0.17985718	     11.54705579	      5.88743083	      0.20153414	      3.15123540	     -7.66303881	     -7.50462968	     10.13683607	    -13.01658757	      0.56939967	     66.94011083	     10.24264309	      1.16832534	     -0.02582547	    -17.00777423	     -7.50462968	     -5.67463722	      8.00035902	     -1.62810956	     -5.20099980	    -12.23858654	     -3.96633432	     23.81211413	     90.00000001	      0.00000000	      0.00000000	     -7.47435805	     -9.54965139	    -12.60358340	     39.02374864	     90.00000001	      0.00000000	      0.00000000
      1.84000000	     -1.75928900	     -5.84092608	      1.78065696	      0.78417099	      0.85936231	     -0.36569744	      8.35989921	      7.19678132	      0.11046930	     10.71749830	      5.90018228	      0.18705563	      3.71845417	     -6.94539367	     -7.50452637	     12.23707344	    -12.45204711	      0.63250085	     68.08237256	      9.74300369	      1.18826156	      1.47262768	    -16.96300100	     -7.50452637	     -5.74807780	      7.46780655	     -1.19167988	     -4.62019007	    -12.28893557	     -3.66647597	     23.98043137	     90.00000001	      0.00000000	      0.00000000	     -7.33012756	     -9.50615895	    -12.73228665	     37.90017503	     90.00000001	      0.00000000	      0.00000000
      1.85000000	     -1.85319979	     -5.49803766	      1.75065722	      0.79520010	      0.86038420	     -0.36556571	      7.19352713	      6.85599732	      0.03544129	      9.87762101	      5.89885076	      0.17239701	      4.25384022	     -6.18598484	     -7.50443629	     14.38310408	    -11.85682268	      0.71288461	     68.85302963	      9.30172072	      1.20171207	      2.99246967	    -16.83436086	     -7.50443629	     -5.75579329	      6.95481613	     -0.82060328	     -3.98692156	    -12.36880275	     -3.33559425	     24.20551776	     90.00000001	      0.00000000	      0.00000000	     -7.18187583	     -9.45136633	    -12.97917432	     36.72490600	     90.00000001	      0.00000000	      0.00000000
      1.86000000	     -1.99307985	     -5.15145593	      1.71585868	      0.80607330	      0.86116728	     -0.36546492	      6.10056489	      6.50991765	     -0.07976409	      9.05405750	      5.88772280	      0.15802311	      4.76132422	     -5.41893604	     -7.50434819	     16.53061018	    -11.23690669	      0.83343386	     69.22915139	      8.98828358	      1.20827663	      4.42098109	    -16.59021866	     -7.50434819	     -5.72364701	      6.43468870	     -0.48169110	     -3.32114999	    -12.46550087	     -2.96248265	     24.48651607	     90.00000001	      0.00000000	      0.00000000	     -7.02320074	     -9.38989601	    -13.30994964	     35.56960529	     90.00000001	      0.00000000	      0.00000000
      1.87000000	     -2.15045440	     -4.81713244	      1.69061014	      0.81688551	      0.86170808	     -0.36538842	      5.03781232	      6.16820201	     -0.20379938	      8.24857266	      5.89641179	      0.14396475	      5.26224319	     -4.65358621	     -7.50425983	     18.61853849	    -10.60503699	      1.01348307	     69.21018819	      8.79509340	      1.20794566	      5.75626156	    -16.28441779	     -7.50425983	     -5.66421136	      5.92090546	     -0.17896599	     -2.63019351	    -12.58693440	     -2.54878966	     24.80897892	     90.00000001	      0.00000000	      0.00000000	     -6.87098170	     -9.34659880	    -13.71365096	     34.42834671	     90.00000001	      0.00000000	      0.00000000
      1.88000000	     -2.30104157	     -4.51126864	      1.65101831	      0.82760870	      0.86200372	     -0.36526090	      4.04088037	      5.88981440	     -0.37703368	      7.56490513	      5.83318019	      0.13203250	      5.73850364	     -3.98361877	     -7.50418394	     20.60785412	    -10.03632027	      1.15344803	     68.79383756	      8.70443512	      1.20067897	      6.91994575	    -15.99704475	     -7.50418394	     -5.62860655	      5.43701354	      0.11799523	     -1.92822700	    -12.70160644	     -2.18704972	     25.17659238	     90.00000001	      0.00000000	      0.00000000	     -6.76974124	     -9.33428662	    -14.05072472	     33.47086841	     90.00000001	      0.00000000	      0.00000000
      1.89000000	     -2.32565545	     -4.17087686	      1.61120355	      0.83841259	      0.86229290	     -0.36534427	      2.83388042	      5.48990680	     -0.44577995	      6.73935475	      5.93590598	      0.11762393	      6.24978717	     -3.09091592	     -7.50403387	     22.28286909	     -9.40592137	      1.56520719	     67.90658056	      8.95921316	      1.18519341	      7.91417636	    -15.66436677	     -7.50403387	     -5.71862305	      4.94848396	      0.33751391	     -1.16348208	    -12.89493948	     -1.42274664	     25.63168634	     90.00000001	      0.00000000	      0.00000000	     -6.52292996	     -9.18915674	    -14.95627879	     32.20071924	     90.00000001	      0.00000000	      0.00000000
      1.90000000	     -2.47018577	     -3.95234556	      1.55080335	      0.84915149	      0.86209449	     -0.36530045	      1.87252428	      5.27845442	     -0.56888415	      6.13644132	      5.93455009	      0.10710111	      6.75652714	     -2.46887303	     -7.50394144	     24.04801167	     -8.92707484	      1.67160901	     66.75652333	      8.96665075	      1.16512113	      8.83329801	    -15.57660172	     -7.50394144	     -5.67550773	      4.58804843	      0.57909529	     -0.39470718	    -13.05343072	     -1.07402545	     26.07178716	     90.00000001	      0.00000000	      0.00000000	     -6.51125854	     -9.18671161	    -15.21920626	     31.38316367	     90.00000001	      0.00000000	      0.00000000
      1.91000000	     -2.50097825	     -3.70857324	      1.44957198	      0.85998051	      0.86186275	     -0.36525109	      0.76522135	      5.02971888	     -0.61255294	      5.49808696	      5.96505554	      0.09595972	      7.27946772	     -1.79702975	     -7.50383064	     25.49189954	     -8.48685582	      1.85374874	     65.16098229	      9.21708161	      1.13727368	      9.51698634	    -15.54435355	     -7.50383064	     -5.75284514	      4.19890047	      0.83654639	      0.39275978	    -13.22269189	     -0.61791857	     26.56668673	     90.00000001	      0.00000000	      0.00000000	     -6.43414763	     -9.16572582	    -15.72297079	     30.44887515	     90.00000001	      0.00000000	      0.00000000
      1.92000000	     -2.64357629	     -3.71111961	      1.28289109	      0.87080794	      0.86118317	     -0.36485560	     -0.02059104	      5.14549208	     -0.90655171	      5.27845894	      5.83165598	      0.09212649	      7.68248697	     -1.47509008	     -7.50377404	     27.00784751	     -8.42122434	      1.70024553	     63.35425626	      9.21704009	      1.10574037	      9.91474710	    -15.31938924	     -7.50377404	     -5.70046763	      4.06397179	      1.14180098	      1.17507830	    -13.36006407	     -0.44147527	     27.08136545	     90.00000001	      0.00000000	      0.00000000	     -6.61095508	     -9.19166798	    -15.86661110	     30.02134305	     90.00000001	      0.00000000	      0.00000000
      1.93000000	     -2.30007213	     -3.28449897	      1.14361214	      0.88184667	      0.86104102	     -0.36502192	     -1.63516867	      4.62862427	     -0.64069763	      4.45958712	      5.98360026	      0.07783448	      8.26251624	     -0.70841159	     -7.50360148	     27.63134452	     -7.85716687	      1.72265650	     60.90510217	      9.60410152	      1.06299456	     10.32281554	    -15.84838375	     -7.50360148	     -6.21465434	      3.50702936	      1.37180176	      2.04483782	    -13.58435798	      0.30901464	     27.66836956	     90.00000001	      0.00000000	      0.00000000	     -6.34373844	     -9.12716312	    -16.85465755	     28.90435569	     90.00000001	      0.00000000	      0.00000000
      1.94000000	     -2.50786958	     -3.48345360	      0.99134011	      0.89267613	      0.85976619	     -0.36465086	     -2.26510684	      4.93169075	     -0.95046676	      4.41146148	      5.91015669	      0.07699453	      8.66295628	     -0.49231719	     -7.50355286	     29.04205060	     -8.08072062	      1.30260423	     58.61564731	      9.45451663	      1.02303604	     10.53836084	    -15.51195974	     -7.50355286	     -6.07123363	      3.61038355	      1.62842331	      2.84948182	    -13.75566070	      0.40191228	     28.21209644	     90.00000001	      0.00000000	      0.00000000	     -6.59710085	     -9.15692534	    -16.88619959	     28.63837256	     90.00000001	      0.00000000	      0.00000000
      1.95000000	     -2.43308548	     -3.21255489	      0.68820135	      0.90366401	      0.85889008	     -0.36445181	     -3.47093531	      4.65245091	     -0.43796737	      3.79760703	      5.90947793	      0.06628075	      9.43169665	      0.22991543	     -7.50346543	     29.70709951	     -7.88453275	      0.93543016	     55.64543733	      9.74861515	      0.97119610	     11.08281878	    -15.80847636	     -7.50346543	     -6.27533024	      3.20306735	      2.02916705	      3.66769079	    -13.91867911	      0.85960138	     28.77917080	     90.00000001	      0.00000000	      0.00000000	     -6.42837498	     -9.18676696	    -17.33042344	     27.60884413	     90.00000001	      0.00000000	      0.00000000
